<svg xmlns="http://www.w3.org/2000/svg" style="display:block" viewBox="0 0 2048 2048" width="512" height="512" preserveAspectRatio="none">
  <path fill="#fefefe" d="M906.618 149.53c3.062.152 2.542.296 5.432 1.774 1.516 5.718 1.41 11.57 1.564 17.448 2.074 79.766.252 159.53.2 239.312l.244 147.404c.054 25.94 1.244 66.074-1.96 90.672-17.68 13.99-74.148 43.052-96.564 56.25-79.13 46.592-164.852 90.032-242.912 137.774.994 16.394 2.556 29.42-.908 45.532 12.306 7.886 68.784 33.292 84.164 40.52l178.48 83.75c17.882 8.396 61.734 27.09 75.082 39.39 7.988 15.048 5.086 96.24 4.972 119.058l-.382 157.898.358 123.678c.09 30.794 2.044 69.512-4.19 98.662-67.772 41.154-155.342 86.79-225.838 125.922l-409.41 227.614c-54.322 30.322-110.372 60.254-164.138 91.23l-19.284 10.642c-1.32-17.186-1.16-41.078-1.26-58.548L90.18 1668.1c-.022-16.008-2.336-156.44 2.96-160.81 47.444-39.13 122.196-67.476 173.876-100.816 30.326-19.562 122.248-59.922 143.128-81.04 2.186-6.818.584-37.522.446-46.678-103.914-53.15-212.472-119.29-316.854-174.388-6.312-46.658-3.36-130.466-3.388-180.932l-.048-315.66c12.434-13.52 175.272-101.596 207.574-119.486l386.892-215.266c70.068-38.858 154.308-82.842 221.854-123.494m89.032-117.452c17.552 10.696 46.008 24.224 64.798 33.886l113.076 58.688 425.648 220.128c64.432 33.26 151.896 75.034 212.85 110.618 3.584 35.16 1.974 85.94 1.92 122.43l-.174 201.26.122 354.9c.048 56.13 1.584 116.176.286 171.756-11.716 7.99-54.514 28.206-68.676 35.216l-146.968 72.118-191.128 94.276c-29.156 14.4-68.982 35.592-98.27 47.956-32.53 18.522-87.37 44.306-121.97 60.976-63.794 30.738-131.674 66.158-195.69 95.504 1.126-32.63-.724-66.198-.742-99.066l.27-213.232c-.07-36.454-.384-73.7.204-110.172.426-6.27.606-14.094 6.072-18.514 27.794-22.482 64.992-41.808 95.764-59.932l168.92-99.306c20.42-11.824 45.324-24.6 64.4-38.42 3.486-2.526 4.842-5.592 4.748-10.028-.614-28.99-.698-58.728-.712-87.64l-.068-183.49c-.048-38.958-1.088-82.658 1.412-120.966-70.656-38.38-144.734-86.84-215.76-126.644-22.916-12.84-108.23-61.728-122.926-74.81-3.52-49.692-4.876-425.746 2.594-437.492m830.606 1319.758c6.542 2.702 116.946 236.38 129.014 262.36-16.082 11.816-83.976 42.946-107.252 54.2l-200.002 97.678-353.03 173.048c-48.812 23.898-108.522 55.466-156.86 76.898-9.08-4.52-64.36-122.632-72.216-139.718-16.926-36.818-43.18-84.036-57.502-121.356 47.964-20.346 108.62-52.778 156.258-76.232l290.818-143.264 243.498-119.658c38.516-18.976 90.866-43.042 127.274-63.956m-418.788 492.85a13168 13168 0 0 0 121.334-59.846c21.946-10.748 45.212-20.756 66.634-31.996.492-28.556 3.076-70.37 11.11-97.346 28.518 12.842 60.622 37.79 87.512 48.984 13.504-6.878 28.296-14.82 41.91-21.166-37.85-25.436-84.896-45.25-120.82-69.752 2.578-39.62 10.75-80.208 15.992-119.626.024-.174-1.842-3.808-2.212-4.198-9.386 4.94-23.994 11.5-32.1 17.28-21.38 15.244-1.46 69.684-17.41 82.666-14.172 2.566-56.36-25.232-69.668-34.384a246 246 0 0 1-4.812-3.4c-72.152 32.08-149.64 77.12-220.348 107.36 13.942 22.214 93.682 190.796 98.224 193.916 8.246.788 16.81-4.684 24.654-8.492m-206.518-144.408c10.976 30.078 48.442 102.356 64.306 132.734-24.92-11.294-55.408-28.74-79.74-42.132-23.266-12.806-54.646-28.946-76.784-43.21-11.096 4.948-27.768 11.848-38.016 17.46 26.744 63.29 66.602 126.806 93.678 190.678 1.474 3.474 5.068 4.594 8.36 5.356l32.552-16.614c-15.316-27.904-52.458-101.384-62.994-130.11 47.602 22.338 111.824 66.33 155.458 83.916 14.632-4.648 23.192-10.01 36.536-17.602-12.552-22.192-93.808-193.228-99.802-196.328-12.508 7.414-20.06 10.4-33.554 15.852m613.97-56.866c14.084-5.726 23.566-10.644 37.022-17.842-28.376-54.474-52.918-111.686-82.734-165.456 19.928-9.932 42.68-19.428 61.708-29.296-4.928-9.33-12.116-28.158-19.354-30.538-50.13 24.92-101.92 49.356-151.51 74.822 5.092 11.874 9.318 21.906 13.542 34.134 21.18-11.854 39.252-20.812 61.136-31.254 15.812 32.204 39.792 77.676 53.502 109.884 9.424 16.228 18.448 38.006 26.688 55.546"/>
  <path fill="#fefefe" d="M1492.192 1597.88c13.848-1.346 66.028 31.784 80.634 40.428-18.238 60.682 12.642 86.478-63.53 117.414-32.202 13.078-72.608 36.39-105.282 51.214a2680 2680 0 0 0-26.284-52.066c8.648-3.984 15.172-7.208 23.448-11.904 22.254-9.418 44.742-21.89 67.682-31.71-7.422-12.754-10.218-18.186-15.496-31.942-30.05 14.548-60.078 29.788-89.97 44.712l-26.15-49.744c7.394-4.614 14.82-8.548 22.704-12.258 44.16-20.788 87.618-44.488 132.244-64.144"/>
</svg>
