<svg version="1.1" xmlns="http://www.w3.org/2000/svg" style="display: block;" viewBox="0 0 1024 1024" width="256" height="256" preserveAspectRatio="none">
<path transform="translate(0,0)" fill="rgb(254,254,254)" d="M 453.309 74.7646 C 454.84 74.8412 454.58 74.9129 456.025 75.652 C 456.783 78.5106 456.73 81.4374 456.807 84.3756 C 457.844 124.259 456.933 164.141 456.907 204.032 L 457.029 277.734 C 457.056 290.704 457.651 310.771 456.049 323.07 C 447.209 330.065 418.975 344.596 407.767 351.195 C 368.202 374.491 325.341 396.211 286.311 420.082 C 286.808 428.279 287.589 434.792 285.857 442.848 C 292.01 446.791 320.249 459.494 327.939 463.108 L 417.179 504.983 C 426.12 509.181 448.046 518.528 454.72 524.678 C 458.714 532.202 457.263 572.798 457.206 584.207 L 457.015 663.156 L 457.194 724.995 C 457.239 740.392 458.216 759.751 455.099 774.326 C 421.213 794.903 377.428 817.721 342.18 837.287 L 137.475 951.094 C 110.314 966.255 82.2893 981.221 55.4061 996.709 L 45.7639 1002.03 C 45.1038 993.437 45.1841 981.491 45.1348 972.756 L 45.0894 834.05 C 45.0778 826.046 43.9211 755.83 46.5699 753.645 C 70.2912 734.08 107.667 719.907 133.507 703.237 C 148.67 693.456 194.631 673.276 205.071 662.717 C 206.164 659.308 205.363 643.956 205.294 639.378 C 153.337 612.803 99.0581 579.733 46.8671 552.184 C 43.7106 528.855 45.1872 486.951 45.1726 461.718 L 45.1494 303.888 C 51.3657 297.128 132.785 253.09 148.936 244.145 L 342.382 136.512 C 377.416 117.083 419.536 95.0907 453.309 74.7646 z"/>
<path transform="translate(0,0)" fill="rgb(254,254,254)" d="M 497.826 16.0385 C 506.602 21.3867 520.83 28.1506 530.225 32.982 L 586.763 62.3262 L 799.587 172.39 C 831.803 189.02 875.535 209.907 906.012 227.699 C 907.804 245.279 906.999 270.669 906.972 288.914 L 906.885 389.544 L 906.946 566.994 C 906.97 595.059 907.738 625.082 907.089 652.872 C 901.231 656.867 879.832 666.975 872.751 670.48 L 799.267 706.539 L 703.703 753.677 C 689.125 760.877 669.212 771.473 654.568 777.655 C 638.303 786.916 610.883 799.808 593.583 808.143 C 561.686 823.512 527.746 841.222 495.738 855.895 C 496.301 839.58 495.376 822.796 495.367 806.362 L 495.502 699.746 C 495.467 681.519 495.31 662.896 495.604 644.66 C 495.817 641.525 495.907 637.613 498.64 635.403 C 512.537 624.162 531.136 614.499 546.522 605.437 L 630.982 555.784 C 641.192 549.872 653.644 543.484 663.182 536.574 C 664.925 535.311 665.603 533.778 665.556 531.56 C 665.249 517.065 665.207 502.196 665.2 487.74 L 665.166 395.995 C 665.142 376.516 664.622 354.666 665.872 335.512 C 630.544 316.322 593.505 292.092 557.992 272.19 C 546.534 265.77 503.877 241.326 496.529 234.785 C 494.769 209.939 494.091 21.9116 497.826 16.0385 z"/>
<path transform="translate(0,0)" fill="rgb(254,254,254)" d="M 913.129 675.918 C 916.4 677.269 971.602 794.108 977.636 807.098 C 969.595 813.006 935.648 828.571 924.01 834.198 L 824.009 883.037 L 647.494 969.561 C 623.088 981.51 593.233 997.294 569.064 1008.01 C 564.524 1005.75 536.884 946.694 532.956 938.151 C 524.493 919.742 511.366 896.133 504.205 877.473 C 528.187 867.3 558.515 851.084 582.334 839.357 L 727.743 767.725 L 849.492 707.896 C 868.75 698.408 894.925 686.375 913.129 675.918 z M 703.735 922.343 C 724.008 912.473 744.231 902.498 764.402 892.42 C 775.375 887.046 787.008 882.042 797.719 876.422 C 797.965 862.144 799.257 841.237 803.274 827.749 C 817.533 834.17 833.585 846.644 847.03 852.241 C 853.782 848.802 861.178 844.831 867.985 841.658 C 849.06 828.94 825.537 819.033 807.575 806.782 C 808.864 786.972 812.95 766.678 815.571 746.969 C 815.583 746.882 814.65 745.065 814.465 744.87 C 809.772 747.34 802.468 750.62 798.415 753.51 C 787.725 761.132 797.685 788.352 789.71 794.843 C 782.624 796.126 761.53 782.227 754.876 777.651 C 754.067 777.094 753.265 776.527 752.47 775.951 C 716.394 791.991 677.65 814.511 642.296 829.631 C 649.267 840.738 689.137 925.029 691.408 926.589 C 695.531 926.983 699.813 924.247 703.735 922.343 z M 600.476 850.139 C 605.964 865.178 624.697 901.317 632.629 916.506 C 620.169 910.859 604.925 902.136 592.759 895.44 C 581.126 889.037 565.436 880.967 554.367 873.835 C 548.819 876.309 540.483 879.759 535.359 882.565 C 548.731 914.21 568.66 945.968 582.198 977.904 C 582.935 979.641 584.732 980.201 586.378 980.582 L 602.654 972.275 C 594.996 958.323 576.425 921.583 571.157 907.22 C 594.958 918.389 627.069 940.385 648.886 949.178 C 656.202 946.854 660.482 944.173 667.154 940.377 C 660.878 929.281 620.25 843.763 617.253 842.213 C 610.999 845.92 607.223 847.413 600.476 850.139 z M 907.461 821.706 C 914.503 818.843 919.244 816.384 925.972 812.785 C 911.784 785.548 899.513 756.942 884.605 730.057 C 894.569 725.091 905.945 720.343 915.459 715.409 C 912.995 710.744 909.401 701.33 905.782 700.14 C 880.717 712.6 854.822 724.818 830.027 737.551 C 832.573 743.488 834.686 748.504 836.798 754.618 C 847.388 748.691 856.424 744.212 867.366 738.991 C 875.272 755.093 887.262 777.829 894.117 793.933 C 898.829 802.047 903.341 812.936 907.461 821.706 z"/>
<path transform="translate(0,0)" fill="rgb(254,254,254)" d="M 746.096 798.94 C 753.02 798.267 779.11 814.832 786.413 819.154 C 777.294 849.495 792.734 862.393 754.648 877.861 C 738.547 884.4 718.344 896.056 702.007 903.468 C 697.721 894.743 693.34 886.065 688.865 877.435 C 693.189 875.443 696.451 873.831 700.589 871.483 C 711.716 866.774 722.96 860.538 734.43 855.628 C 730.719 849.251 729.321 846.535 726.682 839.657 C 711.657 846.931 696.643 854.551 681.697 862.013 L 668.622 837.141 C 672.319 834.834 676.032 832.867 679.974 831.012 C 702.054 820.618 723.783 808.768 746.096 798.94 z"/>
</svg>