<?xml version="1.0" encoding="UTF-8"?>
<svg id="Layer_1" xmlns="http://www.w3.org/2000/svg" version="1.1" xmlns:svg="http://www.w3.org/2000/svg" viewBox="0 0 512 512">
  <!-- Generator: Adobe Illustrator 30.2.0, SVG Export Plug-In . SVG Version: 2.1.1 Build 105)  -->
  <path d="M333.62,470.26l-9.4,4.63-39.05-21.52,16.16,32.8-9.4,4.63-24.4-49.52,9.4-4.63,39.09,21.59-16.19-32.87,9.4-4.63,24.4,49.52h-.01ZM442.86,365.07h0ZM334.71,418.37l6.05,12.27h.01l22.32-11.01,4.03,8.18-22.32,11,6.26,12.7,38.07-18.76,3.55-23.51-18.59-10.28-39.38,19.41h0ZM457.12,338.1l-205,101,31.64,65.17,205.12-100.53-31.76-65.64h0ZM423.12,426.16l-21.57-12.47-2.75,24.46-11.34,5.59h0l-41.79,20.59-24.4-49.52,43.06-21.21.19.07-.16-.09h-.01.01l11.54-5.68,19.04,10.95,2.2-21.42,11.34-5.59-4.76,31.42,30.96,17.21-11.55,5.69h-.01ZM433.46,369.7l-14.85,7.32-4.03-8.18,39.11-19.27,4.03,8.18-14.86,7.32,20.37,41.34-9.4,4.63-20.37-41.34h0Z" fill="#231f20"/>
  <polygon points="248.11 427.73 453.11 326.73 453.11 113.73 248.11 7.73 248.11 117.73 333.11 167.73 333.11 267.73 248.11 317.73 248.11 427.73" fill="#231f20"/>
  <polygon points="23.11 150.73 23.11 275.73 103.11 319.73 103.11 331.73 23.11 375.73 23.11 500.73 228.11 386.73 228.11 261.73 143.11 221.73 143.11 209.73 228.11 161.73 228.11 36.73 23.11 150.73" fill="#231f20"/>
</svg>
